<svg version="1.2" xmlns="http://www.w3.org/2000/svg" viewBox="0 0 843 512" width="843" height="512"><style>.a{fill:#0496ee}</style><path class="a" d="m25.3 268.4q0-8.3 2.9-15.6 2.9-7.3 8.2-12.7 5.3-5.4 12.7-8.6 7.5-3.1 16.6-3.1 4.2 0 8 0.8 3.9 0.8 7.3 2.3 3.4 1.4 6.1 3.4 2.9 1.9 5.1 4l1-8.3h15.3v75.4h-15.3l-1-8.3q-2.3 2.2-5.1 4.1-2.9 1.9-6.3 3.4-3.3 1.4-7.1 2.3-3.8 0.8-8.1 0.8-9 0-16.5-3.1-7.4-3.2-12.6-8.6-5.3-5.4-8.2-12.6-3-7.4-3-15.6zm17.8-0.1q0 5.4 1.9 9.9 1.9 4.6 5.2 7.9 3.3 3.2 7.7 5 4.4 1.8 9.5 1.8 4.9 0 9.3-1.8 4.4-1.8 7.7-5 3.3-3.3 5.2-7.8 1.9-4.5 1.9-10 0-5.4-1.9-9.8-1.9-4.6-5.2-7.8-3.3-3.2-7.7-5.1-4.4-1.8-9.5-1.8-5 0-9.4 1.8-4.4 1.8-7.7 5.1-3.2 3.2-5.1 7.8-1.9 4.4-1.9 9.8zm82.7 14.9l17.5 0.1q0.1 2.1 1.3 4 1.2 1.9 3.3 3.3 2 1.4 4.7 2.2 2.8 0.8 5.9 0.8 8.5 0 12.5-2.5 4.1-2.5 4.1-6.9 0-2.4-1.5-4-1.5-1.6-4.3-2.7-2.7-1.1-6.8-1.9-4-0.9-9.1-1.8-2.6-0.4-5.4-1-2.8-0.6-5.6-1.5-2.8-1-5.4-2.6-2.5-1.5-4.4-3.7-1.9-2.3-3.1-5.4-1.2-3.1-1.2-7.4 0-5.2 1.9-9.6 1.9-4.3 6-7.5 4-3.2 10.2-5 6.2-1.7 14.9-1.7 6.8 0 12.2 1.7 5.5 1.8 9.3 4.9 3.8 3.2 5.9 7.6 2 4.4 2 9.6l-17.8-0.1q-0.3-4-3.7-6.5-3.4-2.6-9.2-2.6-3.7 0-6.3 0.8-2.7 0.7-4.4 2-1.6 1.2-2.4 2.9-0.9 1.6-0.9 3.4 0 2 1.1 3.4 1.1 1.4 3.3 2.4 2.2 0.9 5.6 1.6 3.4 0.7 7.9 1.2 5.5 0.8 10.9 2.2 5.3 1.2 9.5 3.6 4.2 2.4 6.7 6.4 2.6 3.9 2.6 10.2 0 6.3-2.6 11.1-2.5 4.7-7.2 7.8-4.7 3.2-11.3 4.8-6.6 1.5-14.7 1.5-8 0-14-2.2-6-2.2-10.1-5.8-3.9-3.6-5.9-8.1-2-4.4-2-9zm79.7-14.8q0-8.3 3-15.6 3.1-7.3 8.6-12.7 5.6-5.4 13.2-8.6 7.6-3.1 16.6-3.1 9.1 0 16.7 3.1 7.7 3.2 13.2 8.6 5.6 5.4 8.7 12.7 3.1 7.3 3.1 15.6 0 1.8-0.1 2.9-0.2 1.1-0.3 2.1h-65.2q0.9 4.6 3.1 8.4 2.4 3.7 5.6 6.3 3.3 2.6 7.2 4.1 4 1.3 8.2 1.3 6.6 0 11.6-2.9 5.1-2.9 7.7-7.7h19.3q-1.9 5-5.4 9.6-3.5 4.6-8.5 8.1-4.9 3.5-11.2 5.6-6.2 2.1-13.7 2.1-9 0-16.6-3.2-7.6-3.1-13.2-8.5-5.5-5.5-8.6-12.7-3-7.3-3-15.5zm41.6-25.8q-4.6 0-8.5 1.4-3.8 1.4-6.8 3.8-3 2.4-5.2 5.8-2.1 3.3-3.1 7.2h46.4q-1.1-3.9-3.1-7.2-2.1-3.4-5-5.8-2.9-2.4-6.7-3.8-3.6-1.4-8-1.4zm136.5 22.8v40.6h-17.9v-40.2q0-6-1.4-10.2-1.3-4.2-3.7-6.8-2.4-2.6-5.9-3.8-3.5-1.2-7.8-1.2-4.7 0-8.6 1.8-3.9 1.7-6.8 4.8-2.8 3.1-4.4 7.4-1.6 4.3-1.6 9.4v38.8h-17.8v-75.4h14.5l1.3 7.7q2.4-2.1 5.3-3.9 2.9-1.8 6.2-3.1 3.4-1.4 7.1-2.1 3.6-0.8 7.4-0.8 8.8 0 15.2 2.5 6.4 2.4 10.6 7.1 4.3 4.7 6.2 11.7 2.1 6.9 2.1 15.7zm16.7 3q0-8.3 2.9-15.6 2.9-7.3 8.2-12.7 5.3-5.4 12.7-8.6 7.5-3.1 16.6-3.1 4.2 0 8 0.8 3.9 0.8 7.3 2.3 3.4 1.4 6.1 3.4 2.9 1.9 5.1 4l1-8.3h15.3v75.4h-15.3l-1-8.3q-2.3 2.2-5.1 4.1-2.9 1.9-6.3 3.4-3.3 1.4-7.1 2.3-3.8 0.8-8.1 0.8-9 0-16.5-3.1-7.4-3.2-12.6-8.6-5.3-5.4-8.2-12.6-3-7.4-3-15.6zm17.8-0.1q0 5.4 1.9 9.9 1.9 4.6 5.2 7.9 3.3 3.2 7.7 5 4.4 1.8 9.5 1.8 4.9 0 9.3-1.8 4.4-1.8 7.7-5 3.3-3.3 5.2-7.8 1.9-4.5 1.9-10 0-5.4-1.9-9.8-1.9-4.6-5.2-7.8-3.3-3.2-7.7-5.1-4.4-1.8-9.5-1.8-5 0-9.4 1.8-4.4 1.8-7.7 5.1-3.2 3.2-5.1 7.8-1.9 4.4-1.9 9.8zm89.6 37.7v-103.2h17.8v103.2zm36.6-37.6q0-8.3 2.9-15.6 2.9-7.3 8.2-12.7 5.3-5.4 12.7-8.6 7.5-3.1 16.6-3.1 4.2 0 8 0.8 3.9 0.8 7.3 2.3 3.4 1.4 6.1 3.4 2.9 1.9 5.1 4l1-8.3h15.3v75.4h-15.3l-1-8.3q-2.3 2.2-5.1 4.1-2.9 1.9-6.3 3.4-3.3 1.4-7.1 2.3-3.8 0.8-8.1 0.8-9 0-16.5-3.1-7.4-3.2-12.6-8.6-5.3-5.4-8.2-12.6-3-7.4-3-15.6zm17.8-0.1q0 5.4 1.9 9.9 1.9 4.6 5.2 7.9 3.3 3.2 7.7 5 4.4 1.8 9.5 1.8 4.9 0 9.3-1.8 4.4-1.8 7.7-5 3.3-3.3 5.2-7.8 1.9-4.5 1.9-10 0-5.4-1.9-9.8-1.9-4.6-5.2-7.8-3.3-3.2-7.7-5.1-4.4-1.8-9.5-1.8-5 0-9.4 1.8-4.4 1.8-7.7 5.1-3.2 3.2-5.1 7.8-1.9 4.4-1.9 9.8zm172.7 0.1q0 8.2-2.9 15.6-2.9 7.2-8.2 12.6-5.3 5.4-12.7 8.6-7.4 3.1-16.4 3.1-4.3 0-8.2-0.8-3.8-0.8-7.1-2.3-3.4-1.5-6.3-3.4-2.8-2-5-4.1l-1 8.3h-15.3v-103.2h17.8v35.1q4.5-4.1 10.9-6.8 6.3-2.8 14.5-2.8 9 0 16.4 3.1 7.4 3.2 12.6 8.7 5.2 5.4 8.1 12.7 2.8 7.3 2.8 15.6zm-17.8-0.1q0-5.4-1.9-9.8-1.8-4.6-5.1-7.8-3.2-3.3-7.6-5.1-4.4-1.8-9.4-1.8-5.1 0-9.5 1.8-4.4 1.9-7.7 5.1-3.3 3.2-5.2 7.8-1.9 4.4-1.9 9.8 0 5.5 1.9 10 1.9 4.5 5.1 7.8 3.3 3.2 7.7 5 4.4 1.8 9.5 1.8 5 0 9.4-1.8 4.3-1.8 7.6-5 3.3-3.3 5.2-7.9 1.9-4.5 1.9-9.9zm30.8 14.9l17.5 0.1q0.1 2.1 1.3 4 1.2 1.9 3.3 3.3 2 1.4 4.7 2.2 2.7 0.8 5.9 0.8 8.5 0 12.5-2.5 4.1-2.5 4.1-6.9 0-2.4-1.5-4-1.5-1.6-4.3-2.7-2.7-1.1-6.8-1.9-4-0.9-9.1-1.8-2.6-0.4-5.4-1-2.8-0.6-5.6-1.5-2.8-1-5.4-2.6-2.5-1.5-4.4-3.7-1.9-2.3-3.1-5.4-1.2-3.1-1.2-7.4 0-5.2 1.9-9.6 1.9-4.3 6-7.5 4-3.2 10.2-5 6.2-1.7 14.9-1.7 6.8 0 12.2 1.7 5.5 1.8 9.3 4.9 3.8 3.2 5.9 7.6 2 4.4 2 9.6l-17.8-0.1q-0.3-4-3.7-6.5-3.5-2.6-9.2-2.6-3.7 0-6.3 0.8-2.7 0.7-4.4 2-1.6 1.2-2.4 2.9-0.9 1.6-0.9 3.4 0 2 1.1 3.4 1.1 1.4 3.3 2.4 2.2 0.9 5.6 1.6 3.4 0.7 7.9 1.2 5.5 0.8 10.9 2.2 5.3 1.2 9.5 3.6 4.2 2.4 6.7 6.4 2.6 3.9 2.6 10.2 0 6.3-2.6 11.1-2.5 4.7-7.2 7.8-4.7 3.2-11.3 4.8-6.6 1.5-14.7 1.5-8 0-14-2.2-6-2.2-10.1-5.8-3.9-3.6-5.9-8.1-2-4.4-2-9z"/></svg>