<svg version="1.2" xmlns="http://www.w3.org/2000/svg" viewBox="0 0 2048 324" width="2048" height="324"><style>.a{fill:#0496ee}</style><path class="a" d="m102.1 191.2q0-19.4 6.7-36.3 6.8-17.1 19.1-29.7 12.5-12.7 29.7-20 17.5-7.4 38.7-7.4 9.9 0 18.8 2.1 9 1.9 16.9 5.3 7.8 3.2 14.3 7.9 6.7 4.4 11.8 9.4l2.4-19.4h35.6v175.9h-35.6l-2.4-19.3q-5.3 5.1-11.9 9.6-6.7 4.4-14.6 7.8-7.7 3.3-16.7 5.3-8.9 1.9-18.8 1.9-21 0-38.5-7.2-17.2-7.3-29.5-20-12.3-12.6-19.2-29.5-6.8-17.1-6.8-36.4zm41.5-0.2q0 12.6 4.5 23.2 4.4 10.6 12.1 18.3 7.7 7.5 17.9 11.8 10.3 4.1 22.1 4.1 11.6 0 21.9-4.1 10.2-4.3 17.7-11.8 7.7-7.7 12.2-18.1 4.4-10.6 4.4-23.4 0-12.5-4.4-22.9-4.5-10.6-12.2-18.1-7.7-7.5-17.9-11.8-10.3-4.3-22.1-4.3-11.7 0-22 4.3-10.3 4.1-17.9 11.8-7.6 7.5-12 18.1-4.3 10.4-4.3 22.9zm192.7 34.9l40.8 0.1q0.2 5 2.9 9.4 2.9 4.5 7.7 7.7 4.8 3.3 11.1 5.1 6.4 1.9 13.7 1.9 19.8 0 29.2-5.8 9.4-6 9.4-16.1 0-5.6-3.4-9.4-3.4-3.7-9.9-6.3-6.5-2.5-15.9-4.4-9.4-2.1-21.4-4.3-5.9-0.8-12.6-2.2-6.5-1.4-13-3.6-6.5-2.4-12.5-6-5.8-3.6-10.4-8.7-4.4-5.3-7.2-12.5-2.7-7.3-2.7-17.2 0-12.3 4.4-22.4 4.5-10.3 13.9-17.6 9.4-7.5 23.9-11.7 14.5-4.1 34.7-4.1 15.9 0 28.5 4.1 12.9 4.2 21.7 11.5 8.9 7.3 13.7 17.6 4.8 10.3 4.8 22.4l-41.5-0.2q-0.7-9.2-8.7-15.2-8.1-6-21.4-6-8.7 0-14.9 1.9-6.1 1.7-10.1 4.6-3.9 2.9-5.8 6.9-1.9 3.7-1.9 7.8 0 4.8 2.6 8.1 2.6 3.2 7.7 5.4 5.1 2.2 13 3.8 7.9 1.5 18.4 2.7 12.9 2.1 25.3 5.1 12.5 2.9 22.3 8.6 9.7 5.6 15.7 14.9 6 9.2 6 23.7 0 14.9-6 26-6 10.9-16.9 18.3-11 7.3-26.4 11.1-15.3 3.6-34.1 3.6-18.8 0-32.9-5.2-14-5.3-23.4-13.6-9.2-8.4-13.8-18.8-4.6-10.5-4.6-21zm187.1-34.7q0-19.4 7.2-36.3 7.2-17.1 20-29.7 13-12.7 30.8-20 17.7-7.4 38.8-7.4 21.2 0 38.9 7.4 18 7.3 30.8 20 13 12.6 20.2 29.7 7.3 16.9 7.3 36.3 0 4.2-0.3 6.8-0.4 2.6-0.7 5h-152.1q2 10.7 7.3 19.4 5.5 8.7 13 14.9 7.7 6 16.9 9.4 9.3 3.2 19 3.2 15.4 0 27.2-6.8 11.8-6.8 17.9-17.9h45q-4.3 11.6-12.5 22.4-8.2 10.6-19.8 18.8-11.5 8.2-26.2 13.1-14.5 4.8-31.9 4.8-21.1 0-38.8-7.4-17.8-7.3-30.8-19.9-12.8-12.7-20-29.6-7.2-16.9-7.2-36.2zm97.1-60q-10.6 0-19.7 3.2-8.8 3.1-16 8.7-7 5.7-12 13.5-4.9 7.7-7.3 17h108.2q-2.4-9.3-7.2-17-4.8-7.8-11.6-13.5-6.9-5.6-15.6-8.7-8.5-3.2-18.8-3.2zm317.9 53.1v94.7h-41.9v-93.8q0-14-3.1-23.8-3-9.7-8.7-15.9-5.6-6.1-13.8-8.9-8-2.7-18.1-2.7-11 0-20.2 4.1-9 3.9-15.7 11.3-6.7 7.2-10.4 17.2-3.6 10-3.6 21.9v90.6h-41.6v-175.9h33.9l3.1 17.8q5.4-4.8 12.3-8.9 6.8-4.2 14.5-7.3 7.9-3.3 16.4-5 8.5-1.9 17.3-1.9 20.5 0 35.5 5.9 15 5.6 24.8 16.7 9.9 10.9 14.5 27.2 4.8 16 4.8 36.7zm38.7 6.9q0-19.4 6.7-36.3 6.8-17.1 19.1-29.7 12.5-12.7 29.7-20 17.5-7.4 38.7-7.4 9.9 0 18.8 2.1 9 1.9 16.9 5.3 7.8 3.2 14.3 7.9 6.7 4.4 11.8 9.4l2.4-19.4h35.6v175.9h-35.6l-2.4-19.3q-5.3 5.1-11.9 9.6-6.7 4.4-14.6 7.8-7.7 3.3-16.7 5.3-8.9 1.9-18.8 1.9-21 0-38.5-7.2-17.2-7.3-29.5-20-12.3-12.6-19.2-29.5-6.8-17.1-6.8-36.4zm41.5-0.2q0 12.6 4.5 23.2 4.4 10.6 12.1 18.3 7.7 7.5 17.9 11.8 10.3 4.1 22.1 4.1 11.6 0 21.9-4.1 10.2-4.3 17.7-11.8 7.7-7.7 12.2-18.1 4.4-10.6 4.4-23.4 0-12.5-4.4-22.9-4.5-10.6-12.2-18.1-7.7-7.5-17.9-11.8-10.3-4.3-22.1-4.3-11.7 0-22 4.3-10.3 4.1-17.9 11.8-7.6 7.5-12 18.1-4.3 10.4-4.3 22.9zm208.7 88v-240.8h41.6v240.8zm86.7-87.8q0-19.4 6.7-36.3 6.8-17.1 19.1-29.7 12.5-12.7 29.8-20 17.4-7.4 38.6-7.4 9.9 0 18.8 2.1 9 1.9 16.9 5.3 7.9 3.2 14.4 7.9 6.6 4.4 11.7 9.4l2.4-19.4h35.6v175.9h-35.6l-2.4-19.3q-5.2 5.1-11.9 9.6-6.7 4.4-14.5 7.8-7.7 3.3-16.8 5.3-8.9 1.9-18.8 1.9-21 0-38.4-7.2-17.3-7.3-29.6-20-12.3-12.6-19.1-29.5-6.9-17.1-6.9-36.4zm41.5-0.2q0 12.6 4.5 23.2 4.4 10.6 12.1 18.3 7.7 7.5 18 11.8 10.2 4.1 22 4.1 11.6 0 21.9-4.1 10.2-4.3 17.8-11.8 7.7-7.7 12.1-18.1 4.4-10.6 4.4-23.4 0-12.5-4.4-22.9-4.4-10.6-12.1-18.1-7.7-7.5-18-11.8-10.2-4.3-22-4.3-11.8 0-22.1 4.3-10.2 4.1-17.9 11.8-7.5 7.5-12 18.1-4.3 10.4-4.3 22.9zm402.7 0.2q0 19.3-6.8 36.4-6.8 16.9-19.1 29.5-12.3 12.7-29.8 20-17.2 7.4-38.3 7.4-9.9 0-18.9-1.9-8.9-2.1-16.8-5.5-7.8-3.4-14.5-7.8-6.5-4.7-11.6-9.6l-2.4 19.3h-35.7v-240.8h41.5v81.9q10.4-9.6 25.3-15.9 14.9-6.5 33.8-6.5 21.2 0 38.3 7.3 17.3 7.4 29.4 20.2 12.3 12.6 19 29.7 6.6 16.9 6.6 36.3zm-41.5-0.2q0-12.5-4.4-22.9-4.3-10.6-12-18.1-7.5-7.7-17.8-11.8-10.2-4.3-22-4.3-11.8 0-22.1 4.3-10.2 4.3-17.9 11.8-7.7 7.5-12.1 18.1-4.5 10.4-4.5 22.9 0 12.8 4.5 23.4 4.4 10.4 11.9 18.1 7.7 7.5 18 11.8 10.2 4.1 22 4.1 11.6 0 21.9-4.1 10.2-4.3 17.9-11.8 7.7-7.7 12.2-18.3 4.4-10.6 4.4-23.2zm70.5 34.9l40.9 0.1q0.1 5 2.9 9.4 2.9 4.5 7.6 7.7 4.8 3.3 11.2 5.1 6.3 1.9 13.6 1.9 19.9 0 29.3-5.8 9.4-6 9.4-16.1 0-5.6-3.5-9.4-3.4-3.7-9.9-6.3-6.5-2.5-15.9-4.4-9.4-2.1-21.3-4.3-6-0.8-12.7-2.2-6.5-1.4-13-3.6-6.5-2.4-12.4-6-5.9-3.6-10.5-8.7-4.4-5.3-7.1-12.5-2.8-7.3-2.8-17.2 0-12.3 4.5-22.4 4.4-10.3 13.8-17.6 9.4-7.5 23.9-11.7 14.6-4.1 34.7-4.1 15.9 0 28.6 4.1 12.8 4.2 21.7 11.5 8.9 7.3 13.6 17.6 4.8 10.3 4.8 22.4l-41.5-0.2q-0.7-9.2-8.7-15.2-8.1-6-21.4-6-8.7 0-14.9 1.9-6.1 1.7-10 4.6-4 2.9-5.8 6.9-1.9 3.7-1.9 7.8 0 4.8 2.5 8.1 2.6 3.2 7.7 5.4 5.2 2.2 13 3.8 7.9 1.5 18.5 2.7 12.8 2.1 25.3 5.1 12.4 2.9 22.2 8.6 9.7 5.6 15.7 14.9 6 9.2 6 23.7 0 14.9-6 26-6 10.9-16.9 18.3-10.9 7.3-26.3 11.1-15.4 3.6-34.2 3.6-18.8 0-32.8-5.2-14-5.3-23.4-13.6-9.3-8.4-13.9-18.8-4.6-10.5-4.6-21z"/></svg>